HIERARCHY
ROOT Hips
{
	OFFSET 0.000000 0.000000 0.000000 
	CHANNELS 6 Xposition Yposition Zposition Yrotation Zrotation Xrotation 
	JOINT Lumbar
	{
		OFFSET 0.000000 0.000000 0.000000 
		CHANNELS 3 Zrotation Xrotation Yrotation
		JOINT Neck
		{
			OFFSET 0.000000 0.445665 0.000000 
			CHANNELS 3 Zrotation Xrotation Yrotation
			End Site
			{
				OFFSET 0.000000 0.227535 0.000000 
			}
		}
		JOINT RightShoulder
		{
			OFFSET 0.019635 0.377685 0.194865 
			CHANNELS 3 Zrotation Xrotation Yrotation
			JOINT RightElbow
			{
				OFFSET 0.000000 -0.243375 0.000000 
				CHANNELS 2 Zrotation Yrotation
				JOINT RightWrist
				{
					OFFSET 0.000000 -0.264825 0.000000 
					CHANNELS 2 Zrotation Xrotation
					End Site
					{
						OFFSET 0.006600 -0.176220 0.000990 
					}
				}
			}
		}
		JOINT LeftShoulder
		{
			OFFSET 0.019635 0.377685 -0.194865 
			CHANNELS 3 Zrotation Xrotation Yrotation
			JOINT LeftElbow
			{
				OFFSET 0.000000 -0.243375 0.000000 
				CHANNELS 2 Zrotation Yrotation
				JOINT LeftWrist
				{
					OFFSET 0.000000 -0.264825 0.000000 
					CHANNELS 2 Zrotation Xrotation
					End Site
					{
						OFFSET 0.006600 -0.176220 -0.000990 
					}
				}
			}
		}
	}
	JOINT RightHip
	{
		OFFSET 0.052140 -0.069960 0.075570 
		CHANNELS 3 Zrotation Xrotation Yrotation
		JOINT RightKnee
		{
			OFFSET 0.000000 -0.402270 0.000000 
			CHANNELS 1 Zrotation
			JOINT RightAnkle
			{
				OFFSET 0.000000 -0.404085 0.000000 
				CHANNELS 3 Zrotation Xrotation Yrotation
				End Site
				{
					OFFSET 0.204105 -0.089430 0.008415 
				}
			}
		}
	}
	JOINT LeftHip
	{
		OFFSET 0.052140 -0.069960 -0.075570 
		CHANNELS 3 Zrotation Xrotation Yrotation
		JOINT LeftKnee
		{
			OFFSET 0.000000 -0.402270 0.000000 
			CHANNELS 1 Zrotation
			JOINT LeftAnkle
			{
				OFFSET 0.000000 -0.404085 0.000000 
				CHANNELS 3 Zrotation Xrotation Yrotation
				End Site
				{
					OFFSET 0.204105 -0.089430 -0.008415 
				}
			}
		}
	}
}
MOTION
Frames: 29
Frame Time: 0.02
-0 0.95578 0 174.77954 0 -4.23899 5.71025 4.7254 -0.92616 -27.00691 4.467 3.86643 28.06629 -74.76751 -56.80555 26.49719 62.78601 -27.68041 -1.09889 24.18414 65.47509 65.17925 19.09298 -81.98775 -25.70154 3.85404 -2.14531 3.558 -3.63507 -8.02661 2.61449 -5.4836 -10.70629 -2.50857 8.02164 4.04329 -5.66808 4.83974 6.06047 9.93003
0.00012 0.95579 -5e-05 174.80435 0 -4.23737 5.70164 4.70807 -0.85126 -26.86619 4.30582 3.75705 27.54885 -74.55769 -57.25766 26.49693 62.8223 -27.69057 -1.11841 24.17388 65.73857 64.96049 19.07741 -81.8314 -25.79613 3.85039 -2.13037 3.5593 -3.64313 -8.05019 2.61597 -5.48328 -10.71205 -2.48707 8.02295 3.98936 -5.68465 4.8341 6.05399 9.95983
0.00025 0.9558 -0.0001 174.82912 0 -4.23576 5.69308 4.69073 -0.77656 -26.72636 4.14501 3.64785 27.03485 -74.34812 -57.70696 26.49673 62.85881 -27.70015 -1.13779 24.16397 66.00133 64.74204 19.06191 -81.67589 -25.89012 3.8466 -2.11539 3.56061 -3.65112 -8.07379 2.61745 -5.48298 -10.7179 -2.46556 8.02425 3.93555 -5.70119 4.82847 6.04757 9.98951
0.00037 0.95581 -0.00015 174.85428 0 -4.23417 5.68462 4.67314 -0.70215 -26.58815 3.98418 3.5382 26.52887 -74.13759 -58.15025 26.49671 62.89601 -27.70806 -1.15678 24.15478 66.26403 64.5225 19.04681 -81.52268 -25.98303 3.84218 -2.10025 3.56193 -3.6591 -8.0976 2.61898 -5.48277 -10.72422 -2.44387 8.02557 3.8816 -5.71779 4.82289 6.0413 10.01882
0.00049 0.95582 -0.00021 174.87769 0 -4.23246 5.67563 4.65681 -0.62641 -26.44068 3.82356 3.43085 25.97949 -73.93229 -58.62638 26.49569 62.92882 -27.7255 -1.1778 24.14105 66.52732 64.30852 19.0299 -81.35785 -26.08209 3.84104 -2.08614 3.56318 -3.66735 -8.12015 2.62027 -5.48208 -10.72812 -2.42321 8.02687 3.82824 -5.73405 4.81709 6.03424 10.04988
0.00062 0.95582 -0.00025 174.90456 0 -4.23101 5.66774 4.63788 -0.55343 -26.31339 3.66259 3.3188 25.52308 -73.71602 -59.03187 26.49681 62.9714 -27.7223 -1.19456 24.13746 66.78891 64.08312 19.01664 -81.21739 -26.16775 3.83303 -2.06974 3.56454 -3.67489 -8.14543 2.62207 -5.48239 -10.73707 -2.40037 8.02817 3.77378 -5.75105 4.81175 6.02886 10.07732
0.00081 0.95583 -0.00025 174.94402 0 -4.23025 5.66315 4.61067 -0.48749 -26.23664 3.49662 3.18961 25.31549 -73.46274 -59.25215 26.50357 63.04015 -27.66366 -1.19913 24.15845 67.05443 63.81676 19.01517 -81.14625 -26.22024 3.80459 -2.04731 3.56652 -3.68163 -8.1786 2.62555 -5.48571 -10.76122 -2.37071 8.02976 3.71398 -5.77034 4.80768 6.02804 10.09418
0.00101 0.95584 -0.00024 174.98648 0 -4.22975 5.65963 4.58103 -0.42439 -26.18125 3.33078 3.05625 25.20329 -73.19894 -59.39936 26.51245 63.11986 -27.58381 -1.19959 24.19047 67.3167 63.53971 19.01722 -81.09952 -26.25873 3.76947 -2.0225 3.56856 -3.68746 -8.21449 2.62954 -5.49002 -10.79027 -2.33896 8.03129 3.65341 -5.79036 4.80408 6.02893 10.10749
0.00121 0.95585 -0.00024 175.02561 0 -4.22915 5.65545 4.55318 -0.36026 -26.11917 3.1674 2.92737 25.05202 -72.94447 -59.57405 26.5206 63.19407 -27.51257 -1.20203 24.21949 67.57547 63.27406 19.01637 -81.03991 -26.30094 3.73827 -1.99859 3.57036 -3.69297 -8.24899 2.63312 -5.49372 -10.81625 -2.30867 8.03267 3.59464 -5.8099 4.80025 6.0291 10.12285
0.00141 0.95586 -0.00024 175.07294 0 -4.22847 5.652 4.52238 -0.29497 -26.04383 2.99372 2.78774 24.88157 -72.67241 -59.77361 26.52807 63.26688 -27.44569 -1.20347 24.23941 67.85618 62.98326 19.0204 -80.98682 -26.35352 3.70323 -1.97544 3.57302 -3.70156 -8.2842 2.63738 -5.49805 -10.8457 -2.27627 8.03484 3.52981 -5.83001 4.79645 6.02901 10.13643
0.00161 0.95587 -0.00022 175.10405 0 -4.22802 5.64732 4.49721 -0.23284 -26.00184 2.84115 2.66936 24.77516 -72.43254 -59.9031 26.53705 63.34969 -27.36466 -1.20666 24.28164 68.08923 62.73927 19.01587 -80.92723 -26.38215 3.67476 -1.95016 3.57392 -3.70355 -8.31852 2.64042 -5.50134 -10.8692 -2.2477 8.03533 3.47734 -5.84915 4.79277 6.02988 10.15281
0.0018 0.95588 -0.00015 175.08828 0 -4.22827 5.6387 4.48771 -0.17784 -26.04147 2.74996 2.61197 24.81041 -72.29934 -59.86421 26.5525 63.4206 -27.24916 -1.21043 24.37786 68.20025 62.65202 18.97993 -80.8328 -26.33896 3.66473 -1.91921 3.56992 -3.68718 -8.35014 2.6395 -5.50117 -10.87408 -2.23087 8.03127 3.45985 -5.86505 4.78883 6.0328 10.1784
0.00199 0.95589 -7e-05 175.05632 0 -4.22873 5.62886 4.48404 -0.126 -26.11508 2.67942 2.57589 24.90949 -72.19511 -59.75553 26.5683 63.50906 -27.11965 -1.2172 24.49793 68.2607 62.60696 18.93638 -80.73317 -26.2732 3.66194 -1.88622 3.56415 -3.66425 -8.38071 2.63749 -5.5 -10.87299 -2.21783 8.02552 3.4547 -5.88005 4.78515 6.03667 10.20683
0.00218 0.9559 1e-05 175.03271 0 -4.22905 5.61979 4.47801 -0.07339 -26.1764 2.59739 2.52922 24.98643 -72.06885 -59.67466 26.58282 63.61237 -26.99769 -1.22589 24.6092 68.33996 62.52708 18.90109 -80.6429 -26.22461 3.65652 -1.85442 3.55921 -3.64459 -8.41143 2.6362 -5.49947 -10.87528 -2.20268 8.0205 3.4434 -5.89568 4.78155 6.04016 10.23357
0.00237 0.95591 8e-05 175.00513 0 -4.22958 5.60987 4.47069 -0.01839 -26.22449 2.52429 2.48623 25.03564 -71.98354 -59.60962 26.60446 63.6156 -26.87245 -1.22007 24.70871 68.44125 62.5155 18.84636 -80.52335 -26.14907 3.64747 -1.82154 3.55419 -3.62376 -8.4435 2.63368 -5.4981 -10.87489 -2.1892 8.0156 3.43427 -5.91026 4.77682 6.04337 10.26186
0.00257 0.95591 0.00016 174.98181 0 -4.22971 5.60138 4.46746 0.03134 -26.30874 2.43744 2.44069 25.15911 -71.81506 -59.49358 26.60843 63.83644 -26.74789 -1.24589 24.84267 68.47901 62.36856 18.82938 -80.46398 -26.12105 3.64855 -1.79031 3.54891 -3.60371 -8.47263 2.63382 -5.49835 -10.87862 -2.17305 8.01006 3.42367 -5.92696 4.77487 6.04751 10.28765
0.00278 0.9559 0.00028 174.97509 0 -4.22877 5.59732 4.4741 0.06367 -26.47728 2.30794 2.38291 25.44956 -71.45004 -59.27388 26.58742 64.60983 -26.65404 -1.35288 25.02806 68.40027 61.86574 18.92494 -80.56506 -26.25724 3.6695 -1.7655 3.54345 -3.58829 -8.49247 2.63877 -5.50238 -10.89516 -2.1496 8.00304 3.40511 -5.94843 4.77738 6.0528 10.30604
0.00301 0.95588 0.00041 174.973 0 -4.2274 5.59459 4.48463 0.09153 -26.68199 2.16382 2.32188 25.81615 -70.99167 -59.00137 26.54349 65.60945 -26.55592 -1.49274 25.2543 68.24935 61.22033 19.05675 -80.72765 -26.43556 3.70162 -1.74216 3.53781 -3.57369 -8.50964 2.64706 -5.50827 -10.91606 -2.12312 7.99546 3.38475 -5.97233 4.78332 6.05924 10.32184
0.00324 0.95585 0.00053 174.96819 0 -4.22616 5.59122 4.49343 0.12376 -26.87514 2.02614 2.26233 26.16222 -70.55122 -58.74084 26.49518 66.53475 -26.44417 -1.62101 25.48666 68.10266 60.62136 19.16873 -80.86706 -26.57845 3.73284 -1.71734 3.53219 -3.55819 -8.52889 2.65557 -5.51387 -10.93491 -2.09743 7.98817 3.36585 -5.99591 4.78962 6.0659 10.33865
0.00344 0.95586 0.00065 174.96549 0 -4.22521 5.58836 4.50243 0.14584 -27.05009 1.88999 2.20341 26.45151 -70.22011 -58.53056 26.51201 67.34176 -26.40089 -1.73484 25.61578 68.08026 60.10013 19.29786 -80.98785 -26.7951 3.74672 -1.69601 3.52669 -3.54482 -8.54434 2.65635 -5.51695 -10.95372 -2.0745 7.98057 3.3449 -6.01602 4.78751 6.06936 10.35608
0.0037 0.9558 0.00077 174.95962 0 -4.22357 5.58427 4.51168 0.18827 -27.26962 1.74699 2.14227 26.87584 -69.63259 -58.20149 26.38437 68.44692 -26.21009 -1.88703 25.96916 67.77569 59.38411 19.3959 -81.15996 -26.86111 3.79923 -1.66761 3.52102 -3.52714 -8.56722 2.6745 -5.52591 -10.97386 -2.04489 7.97361 3.32733 -6.04409 4.80412 6.07984 10.37183
0.00412 0.95558 0.00089 174.94473 0 -4.22004 5.5804 4.52222 0.28607 -27.61493 1.58776 2.07433 27.65753 -68.40998 -57.57847 25.89204 70.33107 -25.64778 -2.13191 26.93202 66.76649 58.15127 19.43371 -81.47489 -26.5644 3.95471 -1.62087 3.51412 -3.4988 -8.61011 2.73548 -5.54902 -10.99546 -1.99903 7.96774 3.32207 -6.09217 4.86794 6.10863 10.38124
0.0046 0.9553 0.00099 174.92643 0 -4.21587 5.57435 4.53257 0.40484 -28.00097 1.4221 2.00429 28.57119 -66.92184 -56.83368 25.24988 72.50249 -24.93078 -2.41472 28.11808 65.46464 56.7295 19.43232 -81.83491 -26.1037 4.14786 -1.56672 3.50723 -3.46598 -8.66074 2.81446 -5.57823 -11.0184 -1.94629 7.96271 3.31978 -6.14836 4.95099 6.14457 10.38938
0.00506 0.95503 0.0011 174.90919 0 -4.21208 5.56689 4.54198 0.51535 -28.36134 1.25997 1.93626 29.42258 -65.52378 -56.13171 24.65736 74.53865 -24.26178 -2.68414 29.2029 64.26072 55.40332 19.42659 -82.16548 -25.67547 4.32559 -1.51496 3.50086 -3.43415 -8.70868 2.88822 -5.6058 -11.04161 -1.89574 7.95782 3.31428 -6.20182 5.0278 6.1778 10.39972
0.00548 0.95481 0.00123 174.8941 0 -4.20792 5.57021 4.55584 0.6205 -28.75552 1.09518 1.86427 30.288 -64.25657 -55.48257 24.14144 76.6142 -23.68653 -2.94044 30.29216 63.20554 54.03186 19.51666 -82.54184 -25.42288 4.50052 -1.46731 3.49223 -3.40627 -8.75329 2.95025 -5.62894 -11.06161 -1.84897 7.95064 3.31628 -6.2516 5.09483 6.20893 10.40347
0.00601 0.95449 0.0013 174.87375 0 -4.20437 5.54979 4.56035 0.74165 -29.08561 0.93407 1.79933 31.15246 -62.6488 -54.69286 23.43134 78.65843 -22.87964 -3.23018 31.41985 61.76792 52.71073 19.39615 -82.82543 -24.76918 4.68508 -1.4094 3.48835 -3.36972 -8.8064 3.04015 -5.66237 -11.0881 -1.79282 7.94851 3.30376 -6.31058 5.18593 6.24594 10.42024
0.00684 0.95388 0.00123 174.83873 0 -4.20273 5.47053 4.53915 0.90393 -29.25255 0.78894 1.76046 31.9988 -60.2183 -53.55741 22.21717 80.67043 -21.46961 -3.62348 32.63938 59.38088 51.57357 18.71574 -82.90475 -23.01241 4.93023 -1.32428 3.49727 -3.30474 -8.88379 3.20936 -5.72587 -11.13606 -1.7119 7.9596 3.24738 -6.39606 5.34587 6.29906 10.47732
0.00778 0.95318 0.00109 174.79859 0 -4.20174 5.36619 4.50864 1.08135 -29.34855 0.6469 1.72755 32.83575 -57.4449 -52.27766 20.81464 82.61734 -19.83309 -4.04477 33.88186 56.6131 50.48748 17.82336 -82.8777 -20.8649 5.17598 -1.22915 3.51101 -3.23207 -8.96903 3.40464 -5.79892 -11.1898 -1.62194 7.97582 3.17693 -6.48989 5.52798 6.35752 10.54689
0.00868 0.95254 0.00098 174.76153 0 -4.20038 5.2694 4.48216 1.25031 -29.46179 0.50084 1.688 33.66601 -54.79429 -51.06223 19.50023 84.51028 -18.29989 -4.44006 35.0875 53.99679 49.3885 17.01872 -82.857 -18.91833 5.39268 -1.1391 3.52278 -3.1668 -9.04887 3.58364 -5.86555 -11.23821 -1.53647 7.9901 3.11484 -6.57795 5.69537 6.41252 10.60804
